<svg width="105" height="28" viewBox="0 0 105 28" fill="none" xmlns="http://www.w3.org/2000/svg">
<rect width="105" height="28" rx="14" fill="#60696F"/>
<path d="M28.9985 9.08H27.7025V11.656C27.7025 14.376 25.9585 17.128 23.8465 18.136L24.6465 19.208C26.3265 18.344 27.7025 16.552 28.3585 14.392C29.0465 16.44 30.4225 18.136 32.0545 18.936L32.8385 17.88C30.7105 16.92 28.9985 14.28 28.9985 11.656V9.08ZM34.3425 7.832V22.216H35.6545V7.832H34.3425ZM49.1253 15.256H50.4533V7.848H49.1253V10.44H46.0052V11.512H49.1253V15.256ZM47.0133 13.928C44.9493 13.24 43.4933 11.496 43.4933 9.624V8.296H42.1973V9.624C42.1973 11.704 40.7733 13.512 38.6133 14.248L39.3013 15.288C40.9813 14.664 42.2773 13.416 42.8853 11.8C43.5093 13.256 44.7573 14.392 46.3413 14.952L47.0133 13.928ZM42.5333 20.952V19.416H50.4533V15.976H41.2053V17.016H49.1573V18.424H41.2373V21.992H50.9973V20.952H42.5333ZM54.9 12.376C54.9 10.968 55.956 9.976 57.364 9.976C58.772 9.976 59.828 10.968 59.828 12.376C59.828 13.784 58.772 14.776 57.364 14.776C55.956 14.776 54.9 13.784 54.9 12.376ZM61.108 12.376C61.108 10.296 59.508 8.84 57.364 8.84C55.22 8.84 53.62 10.296 53.62 12.376C53.62 14.456 55.22 15.912 57.364 15.912C59.508 15.912 61.108 14.456 61.108 12.376ZM56.868 17.32H55.556V21.864H65.124V20.792H56.868V17.32ZM64.484 12.2V7.832H63.172V18.392H64.484V13.288H66.612V12.2H64.484ZM70.0828 9.576H68.7708V18.456H69.6828C71.2348 18.456 72.8828 18.376 74.8188 18.008L74.6908 16.872C72.9788 17.208 71.4588 17.304 70.0828 17.32V9.576ZM78.9788 7.832V13.672H76.9468V8.152H75.7148V21.448H76.9468V14.76H78.9788V22.168H80.2428V7.832H78.9788Z" fill="white"/>
</svg>
